<svg width="24" height="24" viewBox="0 0 24 24" fill="none" xmlns="http://www.w3.org/2000/svg">
    <g clip-path="url(#clip0)">
        <path fill-rule="evenodd" clip-rule="evenodd"
            d="M4.7071 5.2929C4.31658 5.68342 4.31658 6.31659 4.7071 6.70711L9.99999 12L4.7071 17.2929C4.31658 17.6834 4.31658 18.3166 4.7071 18.7071C5.09762 19.0976 5.73079 19.0976 6.12131 18.7071L11.4142 13.4142L17.435 19.435C17.8255 19.8256 18.4587 19.8256 18.8492 19.435C19.2398 19.0445 19.2398 18.4113 18.8492 18.0208L12.8284 12L18.8492 5.97918C19.2398 5.58865 19.2398 4.95549 18.8492 4.56496C18.4587 4.17444 17.8255 4.17444 17.435 4.56496L11.4142 10.5858L6.12131 5.2929C5.73079 4.90238 5.09762 4.90238 4.7071 5.2929Z"
            fill="#95939B" />
    </g>
    <defs>
        <clipPath id="clip0">
            <rect width="24" height="24" fill="white" />
        </clipPath>
    </defs>
</svg>