<svg width="24" height="24" viewBox="0 0 24 24" fill="none" xmlns="http://www.w3.org/2000/svg">
    <path fill-rule="evenodd" clip-rule="evenodd"
        d="M12 2C17.5228 2 22 6.47715 22 12C22 17.5228 17.5228 22 12 22C6.47715 22 2 17.5228 2 12C2 6.47715 6.47715 2 12 2ZM12.9774 13.7294L13.1851 6.09091H10.8147L11.0278 13.7294H12.9774ZM11.0971 16.7656C11.3492 17.0142 11.651 17.1385 12.0026 17.1385C12.3435 17.1385 12.64 17.0142 12.8922 16.7656C13.1478 16.517 13.2775 16.2152 13.281 15.8601C13.2775 15.5121 13.1478 15.2138 12.8922 14.9652C12.64 14.7166 12.3435 14.5923 12.0026 14.5923C11.651 14.5923 11.3492 14.7166 11.0971 14.9652C10.8449 15.2138 10.7206 15.5121 10.7242 15.8601C10.7206 16.2152 10.8449 16.517 11.0971 16.7656Z"
        fill="#F1605D" />
</svg>