<svg width="24" height="24" viewBox="0 0 24 24" fill="none" xmlns="http://www.w3.org/2000/svg">
    <path fill-rule="evenodd" clip-rule="evenodd"
        d="M5.63604 19.364C5.24552 19.7545 4.6079 19.7574 4.25832 19.3298C3.43301 18.3204 2.81095 17.1567 2.4306 15.9029C1.95322 14.3292 1.87132 12.662 2.19215 11.0491C2.51298 9.43619 3.22663 7.92729 4.2699 6.65607C5.31316 5.38485 6.65384 4.39053 8.17316 3.76121C9.69249 3.13188 11.3436 2.88697 12.9802 3.04816C14.6168 3.20934 16.1883 3.77166 17.5557 4.68531C18.9231 5.59895 20.044 6.8357 20.8192 8.28603C21.4366 9.4411 21.8195 10.7032 21.9499 12H23V14H13.7324C13.3866 14.5978 12.7403 15 12 15C10.8954 15 10 14.1046 10 13C10 11.8954 10.8954 11 12 11C12.7403 11 13.3866 11.4022 13.7324 12H16.0792C15.9959 11.6603 15.8702 11.331 15.7041 11.0201C15.3785 10.411 14.9077 9.89156 14.3334 9.50783C13.7591 9.1241 13.099 8.88793 12.4117 8.82023C11.7243 8.75253 11.0308 8.85539 10.3927 9.11971C9.75461 9.38402 9.19153 9.80164 8.75336 10.3355C8.31519 10.8695 8.01545 11.5032 7.8807 12.1806C7.74595 12.858 7.78035 13.5582 7.98085 14.2192C8.09385 14.5917 8.25765 14.9453 8.46654 15.2704C8.73523 15.6886 8.74523 16.2548 8.39376 16.6062C8.04228 16.9577 7.46598 16.961 7.17098 16.561C6.76668 16.0127 6.45738 15.3978 6.25836 14.7417C5.97193 13.7975 5.92279 12.7972 6.11529 11.8295C6.30779 10.8617 6.73598 9.95638 7.36194 9.19364C7.9879 8.43091 8.7923 7.83432 9.7039 7.45672C10.6155 7.07913 11.6061 6.93218 12.5881 7.02889C13.5701 7.12561 14.513 7.463 15.3334 8.01118C16.1538 8.55937 16.8264 9.30142 17.2915 10.1716C17.5982 10.7453 17.8084 11.363 17.9161 12H19.9373C19.8154 11.0329 19.5175 10.0934 19.0554 9.22883C18.4352 8.06856 17.5384 7.07916 16.4446 6.34824C15.3507 5.61733 14.0934 5.16748 12.7841 5.03852C11.4749 4.90957 10.154 5.10551 8.93853 5.60897C7.72307 6.11243 6.65053 6.90788 5.81592 7.92486C4.9813 8.94184 4.41038 10.149 4.15372 11.4393C3.89706 12.7296 3.96258 14.0633 4.34448 15.3223C4.6293 16.2612 5.08356 17.137 5.68201 17.9074C6.02079 18.3436 6.02656 18.9734 5.63604 19.364Z"
        fill="#6B6874" />
</svg>