<svg width="24" height="24" viewBox="0 0 24 24" fill="none" xmlns="http://www.w3.org/2000/svg">
    <path fill-rule="evenodd" clip-rule="evenodd"
        d="M14 10C14 12.2091 12.2091 14 10 14C7.79086 14 6 12.2091 6 10C6 7.79086 7.79086 6 10 6C12.2091 6 14 7.79086 14 10ZM13.5189 14.8603C12.5304 15.5773 11.3146 16 10 16C6.68629 16 4 13.3137 4 10C4 6.68629 6.68629 4 10 4C13.3137 4 16 6.68629 16 10C16 11.3146 15.5772 12.5304 14.8603 13.5189C14.9545 13.5659 15.0428 13.6286 15.1213 13.7071L18.6569 17.2426C19.0474 17.6332 19.0474 18.2663 18.6569 18.6569C18.2663 19.0474 17.6332 19.0474 17.2426 18.6569L13.7071 15.1213C13.6286 15.0428 13.5659 14.9545 13.5189 14.8603Z"
        fill="#95939B" />
</svg>