<svg width="24" height="24" viewBox="0 0 24 24" fill="none" xmlns="http://www.w3.org/2000/svg">
<path fill-rule="evenodd" clip-rule="evenodd" d="M13.125 3H10.875V5.08992C9.83687 5.25764 8.8752 5.65366 8.04316 6.22483L6.54519 4.72686L4.72691 6.54513L6.22487 8.04309C5.65368 8.87515 5.25764 9.83684 5.08992 10.875L3 10.875V13.125H5.08992C5.25764 14.1631 5.65367 15.1248 6.22484 15.9569L4.72688 17.4548L6.54515 19.2731L8.04311 17.7751C8.87516 18.3463 9.83685 18.7424 10.875 18.9101V21H13.125V18.9101C14.1632 18.7424 15.1249 18.3463 15.9569 17.7751L17.4548 19.2731L19.2731 17.4548L17.7752 15.9568C18.3463 15.1248 18.7424 14.1631 18.9101 13.125H21V10.875L18.9101 10.875C18.7424 9.83685 18.3463 8.87516 17.7751 8.04311L19.2731 6.54518L17.4548 4.72691L15.9569 6.22484C15.1248 5.65367 14.1631 5.25764 13.125 5.08992V3ZM16.2 12C16.2 14.3196 14.3196 16.2 12 16.2C9.68043 16.2 7.80003 14.3196 7.80003 12C7.80003 9.6804 9.68043 7.79999 12 7.79999C14.3196 7.79999 16.2 9.6804 16.2 12Z" fill="#616161"/>
</svg>
