<svg width="24" height="24" viewBox="0 0 24 24" fill="none" xmlns="http://www.w3.org/2000/svg">
    <path fill-rule="evenodd" clip-rule="evenodd"
        d="M13 6.5C13 7.32843 12.3284 8 11.5 8C10.6716 8 10 7.32843 10 6.5C10 5.67157 10.6716 5 11.5 5C12.3284 5 13 5.67157 13 6.5ZM13 11.5C13 12.3284 12.3284 13 11.5 13C10.6716 13 10 12.3284 10 11.5C10 10.6716 10.6716 10 11.5 10C12.3284 10 13 10.6716 13 11.5ZM11.5 18C12.3284 18 13 17.3284 13 16.5C13 15.6716 12.3284 15 11.5 15C10.6716 15 10 15.6716 10 16.5C10 17.3284 10.6716 18 11.5 18Z"
        fill="#2991F3" />
</svg>